<svg xmlns="http://www.w3.org/2000/svg" viewBox="0 0 200 200" width="64" height="64">
  <g fill="#f9e3e8" stroke="#d8a7b1" stroke-width="2" transform="translate(100,100)">
    <circle cx="0" cy="0" r="12" fill="#d48a9c"/>
    <path d="
      M0,-60 
      C15,-60,30,-45,30,-30 
      C30,-15,15,0,0,0 
      C-15,0,-30,-15,-30,-30 
      C-30,-45,-15,-60,0,-60 
      Z" transform="rotate(0)"/>
    <use href="#petal" transform="rotate(72)"/>
    <use href="#petal" transform="rotate(144)"/>
    <use href="#petal" transform="rotate(216)"/>
    <use href="#petal" transform="rotate(288)"/>
  </g>
  <defs>
    <path id="petal" d="
      M0,-60 
      C15,-60,30,-45,30,-30 
      C30,-15,15,0,0,0 
      C-15,0,-30,-15,-30,-30 
      C-30,-45,-15,-60,0,-60 
      Z"/>
  </defs>
</svg>
